<svg width="36" height="31" viewBox="0 0 36 31" fill="none" xmlns="http://www.w3.org/2000/svg">
<path d="M36 6.55359L35.9388 6.64503L25.2245 21.825L19.1939 30.3599C18.6122 31.1829 17.3571 31.1829 16.7755 30.3599L11.6633 23.1052L10.7755 21.8555L5.05102 13.7473L0.0612245 6.64503L0 6.55359L5.26531 1.3412C6.12245 0.487709 7.28571 0 8.47959 0H27.5204C28.7449 0 29.9082 0.487709 30.7653 1.3412L36 6.55359Z" fill="url(#paint0_linear_805_4692)"/>
<path opacity="0.36" d="M36 6.55359L35.9388 6.64503L25.2245 21.825L19.1939 30.3599C18.6122 31.1829 17.3571 31.1829 16.7755 30.3599L11.6633 23.1052L10.7755 21.8555L5.05102 13.7473L0.0612245 6.64503L0 6.55359L5.26531 1.3412C6.12245 0.487709 7.28571 0 8.47959 0H27.5204C28.7449 0 29.9082 0.487709 30.7653 1.3412L36 6.55359Z" fill="#B66DD6"/>
<path d="M36 6.55359L35.9388 6.64503L25.2245 21.825C22.898 22.0383 20.4796 22.1298 18 22.1298C15.5204 22.1298 13.102 22.0079 10.7755 21.825L5.05102 13.7473L0.0612245 6.64503L0 6.55359L5.26531 1.3412C6.12245 0.487709 7.28571 0 8.47959 0H27.5204C28.7449 0 29.9082 0.487709 30.7653 1.3412L36 6.55359Z" fill="url(#paint1_linear_805_4692)"/>
<path opacity="0.45" d="M0.0615234 6.64551L5.05132 13.7173L8.2656 18.2896C22.6534 14.8756 35.8166 6.76744 35.9391 6.67599C30.8881 8.01719 24.6738 8.80972 18.0003 8.80972C11.3268 8.80972 5.14316 7.98671 0.0615234 6.64551Z" fill="#B66DD6"/>
<path opacity="0.36" d="M35.9387 6.64476L35.9999 6.55332L30.7652 1.34093C30.2142 0.792254 29.5101 0.39599 28.7448 0.182617C23.8775 6.85814 16.3162 15.454 10.6836 21.7028L10.806 21.8552L11.6938 23.1049L16.8367 30.3901C17.4183 31.2131 18.6734 31.2131 19.255 30.3901L25.2856 21.8552L35.9387 6.64476Z" fill="url(#paint2_linear_805_4692)"/>
<defs>
<linearGradient id="paint0_linear_805_4692" x1="13.8387" y1="5.97404" x2="-11.0834" y2="-19.0547" gradientUnits="userSpaceOnUse">
<stop stop-color="#C696DB"/>
<stop offset="1" stop-color="#A36EBA"/>
</linearGradient>
<linearGradient id="paint1_linear_805_4692" x1="29.1706" y1="19.9544" x2="14.1505" y2="4.87005" gradientUnits="userSpaceOnUse">
<stop stop-color="#A36EBA"/>
<stop offset="1" stop-color="#EEC7FF"/>
</linearGradient>
<linearGradient id="paint2_linear_805_4692" x1="28.7483" y1="20.1711" x2="16.8494" y2="9.80292" gradientUnits="userSpaceOnUse">
<stop stop-color="white" stop-opacity="0"/>
<stop offset="1" stop-color="white"/>
</linearGradient>
</defs>
</svg>
